<svg width="118" height="39" viewBox="0 0 118 39" fill="none" xmlns="http://www.w3.org/2000/svg">
<path d="M117.062 0.882812L100.221 4.92622L112.143 17.4901L117.062 0.882812ZM4.20772 20.2331C4.91798 20.6595 5.83943 20.4294 6.26584 19.7192C6.69226 19.0089 6.46215 18.0875 5.7519 17.661L4.20772 20.2331ZM13.8873 22.3642C13.1624 21.9631 12.2497 22.2255 11.8485 22.9504C11.4474 23.6752 11.7098 24.588 12.4347 24.9891L13.8873 22.3642ZM20.8674 29.3942C21.6119 29.7576 22.51 29.4486 22.8734 28.7042C23.2368 27.9597 22.9279 27.0616 22.1834 26.6982L20.8674 29.3942ZM30.6874 30.4851C29.9177 30.1786 29.0453 30.5541 28.7388 31.3237C28.4323 32.0934 28.8078 32.9658 29.5775 33.2723L30.6874 30.4851ZM38.6839 36.3649C39.4825 36.5853 40.3085 36.1166 40.5289 35.3181C40.7493 34.5195 40.2806 33.6935 39.482 33.4731L38.6839 36.3649ZM48.4984 35.2722C47.6757 35.1754 46.9303 35.7639 46.8335 36.5867C46.7367 37.4094 47.3253 38.1549 48.148 38.2516L48.4984 35.2722ZM57.8518 38.4906C58.6781 38.4311 59.2997 37.7131 59.2402 36.8868C59.1808 36.0605 58.4627 35.4389 57.6364 35.4984L57.8518 38.4906ZM66.6415 33.9512C65.8422 34.1687 65.3705 34.993 65.588 35.7924C65.8055 36.5918 66.6298 37.0635 67.4292 36.846L66.6415 33.9512ZM76.5067 33.5292C77.2604 33.1853 77.5925 32.2955 77.2486 31.5418C76.9047 30.7882 76.0149 30.456 75.2613 30.7999L76.5067 33.5292ZM83.4207 26.4336C82.7134 26.8648 82.4896 27.7878 82.9208 28.4951C83.3521 29.2025 84.2751 29.4263 84.9824 28.995L83.4207 26.4336ZM92.9131 23.6676C93.5823 23.1793 93.7289 22.2409 93.2406 21.5717C92.7523 20.9025 91.8139 20.7559 91.1447 21.2442L92.9131 23.6676ZM98.5296 15.5053C97.8893 16.0309 97.7962 16.9761 98.3218 17.6164C98.8474 18.2568 99.7926 18.3498 100.433 17.8242L98.5296 15.5053ZM107.647 11.6476C108.266 11.0973 108.322 10.1492 107.772 9.52995C107.221 8.91071 106.273 8.85483 105.654 9.40514L107.647 11.6476ZM112.597 3.05236C111.993 3.61938 111.963 4.56865 112.53 5.17262C113.097 5.77659 114.047 5.80655 114.651 5.23953L112.597 3.05236ZM0.9375 16.4824L0.148407 17.7581C1.52284 18.6083 2.87559 19.4333 4.20772 20.2331L4.97981 18.9471L5.7519 17.661C4.43196 16.8686 3.09058 16.0505 1.72659 15.2068L0.9375 16.4824ZM13.161 23.6767L12.4347 24.9891C15.338 26.5958 18.1444 28.065 20.8674 29.3942L21.5254 28.0462L22.1834 26.6982C19.5129 25.3947 16.7523 23.9498 13.8873 22.3642L13.161 23.6767ZM30.1324 31.8787L29.5775 33.2723C32.7031 34.5169 35.7303 35.5498 38.6839 36.3649L39.083 34.919L39.482 33.4731C36.6477 32.6908 33.7249 31.6947 30.6874 30.4851L30.1324 31.8787ZM48.3232 36.7619L48.148 38.2516C51.4366 38.6384 54.6583 38.7205 57.8518 38.4906L57.7441 36.9945L57.6364 35.4984C54.6404 35.714 51.6083 35.6379 48.4984 35.2722L48.3232 36.7619ZM67.0354 35.3986L67.4292 36.846C70.445 36.0254 73.4594 34.9198 76.5067 33.5292L75.884 32.1646L75.2613 30.7999C72.3478 32.1294 69.4864 33.1771 66.6415 33.9512L67.0354 35.3986ZM84.2016 27.7143L84.9824 28.995C87.5742 27.4148 90.2112 25.6391 92.9131 23.6676L92.0289 22.4559L91.1447 21.2442C88.5004 23.1738 85.9323 24.9022 83.4207 26.4336L84.2016 27.7143ZM99.4813 16.6648L100.433 17.8242C102.776 15.9012 105.177 13.8426 107.647 11.6476L106.65 10.5264L105.654 9.40514C103.209 11.5778 100.838 13.6105 98.5296 15.5053L99.4813 16.6648ZM117.062 0.882812L100.221 4.92622L112.143 17.4901L117.062 0.882812ZM4.20772 20.2331C4.91798 20.6595 5.83943 20.4294 6.26584 19.7192C6.69226 19.0089 6.46215 18.0875 5.7519 17.661L4.20772 20.2331ZM13.8873 22.3642C13.1624 21.9631 12.2497 22.2255 11.8485 22.9504C11.4474 23.6752 11.7098 24.588 12.4347 24.9891L13.8873 22.3642ZM20.8674 29.3942C21.6119 29.7576 22.51 29.4486 22.8734 28.7042C23.2368 27.9597 22.9279 27.0616 22.1834 26.6982L20.8674 29.3942ZM30.6874 30.4851C29.9177 30.1786 29.0453 30.5541 28.7388 31.3237C28.4323 32.0934 28.8078 32.9658 29.5775 33.2723L30.6874 30.4851ZM38.6839 36.3649C39.4825 36.5853 40.3085 36.1166 40.5289 35.3181C40.7493 34.5195 40.2806 33.6935 39.482 33.4731L38.6839 36.3649ZM48.4984 35.2722C47.6757 35.1754 46.9303 35.7639 46.8335 36.5867C46.7367 37.4094 47.3253 38.1549 48.148 38.2516L48.4984 35.2722ZM57.8518 38.4906C58.6781 38.4311 59.2997 37.7131 59.2402 36.8868C59.1808 36.0605 58.4627 35.4389 57.6364 35.4984L57.8518 38.4906ZM66.6415 33.9512C65.8422 34.1687 65.3705 34.993 65.588 35.7924C65.8055 36.5918 66.6298 37.0635 67.4292 36.846L66.6415 33.9512ZM76.5067 33.5292C77.2604 33.1853 77.5925 32.2955 77.2486 31.5418C76.9047 30.7882 76.0149 30.456 75.2613 30.7999L76.5067 33.5292ZM83.4207 26.4336C82.7134 26.8648 82.4896 27.7878 82.9208 28.4951C83.3521 29.2025 84.2751 29.4263 84.9824 28.995L83.4207 26.4336ZM92.9131 23.6676C93.5823 23.1793 93.7289 22.2409 93.2406 21.5717C92.7523 20.9025 91.8139 20.7559 91.1447 21.2442L92.9131 23.6676ZM98.5296 15.5053C97.8893 16.0309 97.7962 16.9761 98.3218 17.6164C98.8474 18.2568 99.7926 18.3498 100.433 17.8242L98.5296 15.5053ZM107.647 11.6476C108.266 11.0973 108.322 10.1492 107.772 9.52995C107.221 8.91071 106.273 8.85483 105.654 9.40514L107.647 11.6476ZM112.597 3.05236C111.993 3.61938 111.963 4.56865 112.53 5.17262C113.097 5.77659 114.047 5.80655 114.651 5.23953L112.597 3.05236ZM0.9375 16.4824L0.148407 17.7581C1.52284 18.6083 2.87559 19.4333 4.20772 20.2331L4.97981 18.9471L5.7519 17.661C4.43196 16.8686 3.09058 16.0505 1.72659 15.2068L0.9375 16.4824ZM13.161 23.6767L12.4347 24.9891C15.338 26.5958 18.1444 28.065 20.8674 29.3942L21.5254 28.0462L22.1834 26.6982C19.5129 25.3947 16.7523 23.9498 13.8873 22.3642L13.161 23.6767ZM30.1324 31.8787L29.5775 33.2723C32.7031 34.5169 35.7303 35.5498 38.6839 36.3649L39.083 34.919L39.482 33.4731C36.6477 32.6908 33.7249 31.6947 30.6874 30.4851L30.1324 31.8787ZM48.3232 36.7619L48.148 38.2516C51.4366 38.6384 54.6583 38.7205 57.8518 38.4906L57.7441 36.9945L57.6364 35.4984C54.6404 35.714 51.6083 35.6379 48.4984 35.2722L48.3232 36.7619ZM67.0354 35.3986L67.4292 36.846C70.445 36.0254 73.4594 34.9198 76.5067 33.5292L75.884 32.1646L75.2613 30.7999C72.3478 32.1294 69.4864 33.1771 66.6415 33.9512L67.0354 35.3986ZM84.2016 27.7143L84.9824 28.995C87.5742 27.4148 90.2112 25.6391 92.9131 23.6676L92.0289 22.4559L91.1447 21.2442C88.5004 23.1738 85.9323 24.9022 83.4207 26.4336L84.2016 27.7143ZM99.4813 16.6648L100.433 17.8242C102.776 15.9012 105.177 13.8426 107.647 11.6476L106.65 10.5264L105.654 9.40514C103.209 11.5778 100.838 13.6105 98.5296 15.5053L99.4813 16.6648Z" fill="white"/>
</svg>
